<?xml version="1.0" standalone="no"?>
<!DOCTYPE svg PUBLIC "-//W3C//DTD SVG 20010904//EN"
 "http://www.w3.org/TR/2001/REC-SVG-20010904/DTD/svg10.dtd">
<svg version="1.0" xmlns="http://www.w3.org/2000/svg"
 width="512.000000pt" height="512.000000pt" viewBox="0 0 512.000000 512.000000"
 preserveAspectRatio="xMidYMid meet">
<metadata>
Created by potrace 1.11, written by Peter Selinger 2001-2013
</metadata>
<g transform="translate(0.000000,512.000000) scale(0.100000,-0.100000)"
fill="#000000" stroke="none">
<path d="M2458 5092 c-62 -33 -105 -91 -116 -157 -5 -27 -8 -128 -8 -224 l2
-175 -25 34 c-94 122 -143 154 -232 153 -85 -2 -146 -41 -189 -123 -47 -91
-32 -168 58 -310 81 -125 119 -204 161 -325 27 -80 60 -210 61 -241 0 -6 -26
-27 -58 -47 -75 -46 -137 -113 -170 -185 -24 -51 -27 -68 -26 -162 1 -125 18
-438 29 -555 4 -46 8 -91 20 -265 3 -36 7 -85 10 -110 5 -49 12 -116 20 -195
2 -27 6 -70 9 -95 3 -25 8 -74 12 -110 3 -36 7 -67 9 -70 2 -3 6 -37 9 -75 3
-39 8 -79 10 -90 2 -11 7 -45 11 -75 4 -30 9 -71 12 -90 5 -41 62 -396 67
-425 24 -123 69 -336 76 -360 5 -16 11 -41 14 -55 27 -156 146 -504 223 -652
41 -80 48 -89 85 -100 64 -19 96 5 147 109 83 169 191 501 237 726 2 10 6 27
9 37 3 10 8 29 10 42 3 13 14 68 25 123 29 144 29 146 36 195 3 25 7 52 9 60
3 8 7 33 10 55 4 22 8 47 10 55 2 8 7 40 10 70 4 30 8 57 10 60 2 3 6 37 10
75 4 39 9 72 10 75 2 3 6 33 10 67 3 34 8 71 10 82 2 11 6 48 10 83 3 35 8 74
10 88 2 14 7 52 10 85 5 63 13 143 20 210 13 128 15 156 20 210 2 33 7 94 10
135 3 41 7 100 10 130 14 159 27 414 29 540 1 105 -1 120 -26 172 -33 72 -95
139 -170 185 -34 21 -58 43 -58 53 0 36 50 213 86 302 40 101 59 137 145 274
64 102 77 138 72 207 -10 143 -140 239 -277 204 -44 -11 -127 -86 -165 -148
-12 -19 -21 -32 -22 -29 -1 3 -2 91 -3 195 -3 227 -10 259 -69 318 -67 67
-175 83 -259 39z m-308 -634 c67 -96 105 -162 156 -276 49 -109 65 -129 109
-138 36 -6 68 7 98 40 l19 21 -6 -25 c-3 -14 -6 -30 -6 -37 0 -26 -54 -63 -91
-63 -45 0 -73 26 -105 98 -55 125 -98 203 -158 293 -48 72 -68 94 -84 93 -17
0 -22 5 -22 26 0 64 30 53 90 -32z m905 37 c0 -22 -5 -30 -18 -30 -41 0 -137
-149 -219 -339 -47 -107 -82 -146 -134 -146 -26 0 -43 8 -65 29 -24 25 -29 37
-28 78 1 41 2 44 9 21 4 -15 16 -36 26 -45 24 -24 95 -24 122 0 10 10 43 70
73 135 67 146 117 235 165 290 42 50 69 52 69 7z m-393 -900 c121 -12 249 -69
311 -137 15 -17 27 -31 27 -32 0 -1 4 -16 10 -35 l10 -34 -28 26 c-61 58 -187
88 -352 82 -120 -4 -174 -16 -261 -60 -112 -56 -157 -115 -157 -203 0 -31 0
-63 -1 -69 -1 -9 -17 -12 -53 -10 -60 3 -54 -13 -59 168 -3 93 -1 109 19 140
27 44 71 78 152 116 109 52 216 66 382 48z m-421 -677 c0 -7 2 -29 4 -48 1
-19 5 -87 9 -150 4 -63 9 -135 11 -160 2 -25 7 -79 10 -120 3 -41 7 -95 10
-120 2 -25 7 -89 11 -142 l6 -98 -51 0 c-49 0 -51 1 -52 28 0 15 -2 34 -3 42
-2 8 -6 51 -10 95 -7 86 -14 147 -21 210 -3 22 -7 78 -10 125 -3 47 -7 108
-10 135 -2 28 -7 87 -10 133 l-7 82 56 0 c38 0 56 -4 57 -12z m83 -1037 c3 -4
7 -29 10 -56 6 -47 31 -236 42 -315 2 -19 11 -73 19 -120 7 -47 16 -101 19
-120 3 -19 8 -46 10 -60 3 -14 7 -41 10 -60 3 -19 10 -60 16 -90 6 -30 13 -66
15 -80 4 -24 61 -293 70 -335 3 -11 8 -33 12 -50 4 -16 7 -32 8 -35 1 -3 9
-32 19 -65 24 -80 25 -85 9 -114 -7 -15 -13 -32 -13 -38 0 -75 -100 216 -159
467 -40 164 -66 285 -77 356 -3 20 -8 46 -10 58 -3 11 -14 77 -25 146 -11 69
-22 136 -24 150 -2 14 -9 63 -15 110 -6 47 -13 96 -16 110 -2 14 -7 52 -10 86
l-6 60 46 1 c25 1 48 -2 50 -6z"/>
</g>
</svg>
